<?xml version="1.0" encoding="utf-8" standalone="no"?>
<!DOCTYPE svg PUBLIC "-//W3C//DTD SVG 1.1//EN"
  "http://www.w3.org/Graphics/SVG/1.1/DTD/svg11.dtd">
<svg xmlns:xlink="http://www.w3.org/1999/xlink" width="382.79952pt" height="238.79952pt" viewBox="0 0 382.79952 238.79952" xmlns="http://www.w3.org/2000/svg" version="1.1">
 <metadata>
  <rdf:RDF xmlns:dc="http://purl.org/dc/elements/1.1/" xmlns:cc="http://creativecommons.org/ns#" xmlns:rdf="http://www.w3.org/1999/02/22-rdf-syntax-ns#">
   <cc:Work>
    <dc:type rdf:resource="http://purl.org/dc/dcmitype/StillImage"/>
    <dc:format>image/svg+xml</dc:format>
    <dc:creator>
     <cc:Agent>
      <dc:title>RI-ACRSP NGAS A1.7A-R</dc:title>
     </cc:Agent>
    </dc:creator>
   </cc:Work>
  </rdf:RDF>
 </metadata>
 <defs>
  <style type="text/css">*{stroke-linejoin: round; stroke-linecap: butt}</style>
 </defs>
 <g id="figure_1">
  <g id="patch_1">
   <path d="M 0 238.79952
L 382.79952 238.79952
L 382.79952 0
L 0 0
z
" style="fill: #ffffff"/>
  </g>
  <g id="axes_1">
   <g id="patch_2">
    <path d="M 33.804063 208.253348
L 375.59952 208.253348
L 375.59952 18.92625
L 33.804063 18.92625
z
" style="fill: #ffffff"/>
   </g>
   <g id="matplotlib.axis_1">
    <g id="xtick_1">
     <g id="line2d_1">
      <defs>
       <path id="mcbbd3a8c6d" d="M 0 0
L 0 3.5
" style="stroke: #000000; stroke-width: 0.8"/>
      </defs>
      <g>
       <use xlink:href="#mcbbd3a8c6d" x="49.34022" y="208.253348" style="stroke: #000000; stroke-width: 0.8"/>
      </g>
     </g>
     <g id="text_1">
      <text style="font-size: 6.5px; font-family: 'Arial', 'Helvetica', 'DejaVu Sans', sans-serif; text-anchor: middle" x="49.34022" y="219.905926" transform="rotate(-0 49.34022 219.905926)">0</text>
     </g>
    </g>
    <g id="xtick_2">
     <g id="line2d_2">
      <g>
       <use xlink:href="#mcbbd3a8c6d" x="131.109468" y="208.253348" style="stroke: #000000; stroke-width: 0.8"/>
      </g>
     </g>
     <g id="text_2">
      <text style="font-size: 6.5px; font-family: 'Arial', 'Helvetica', 'DejaVu Sans', sans-serif; text-anchor: middle" x="131.109468" y="219.905926" transform="rotate(-0 131.109468 219.905926)">5</text>
     </g>
    </g>
    <g id="xtick_3">
     <g id="line2d_3">
      <g>
       <use xlink:href="#mcbbd3a8c6d" x="212.878716" y="208.253348" style="stroke: #000000; stroke-width: 0.8"/>
      </g>
     </g>
     <g id="text_3">
      <text style="font-size: 6.5px; font-family: 'Arial', 'Helvetica', 'DejaVu Sans', sans-serif; text-anchor: middle" x="212.878716" y="219.905926" transform="rotate(-0 212.878716 219.905926)">10</text>
     </g>
    </g>
    <g id="xtick_4">
     <g id="line2d_4">
      <g>
       <use xlink:href="#mcbbd3a8c6d" x="294.647964" y="208.253348" style="stroke: #000000; stroke-width: 0.8"/>
      </g>
     </g>
     <g id="text_4">
      <text style="font-size: 6.5px; font-family: 'Arial', 'Helvetica', 'DejaVu Sans', sans-serif; text-anchor: middle" x="294.647964" y="219.905926" transform="rotate(-0 294.647964 219.905926)">15</text>
     </g>
    </g>
    <g id="xtick_5">
     <g id="line2d_5">
      <g>
       <use xlink:href="#mcbbd3a8c6d" x="360.063363" y="208.253348" style="stroke: #000000; stroke-width: 0.8"/>
      </g>
     </g>
     <g id="text_5">
      <text style="font-size: 6.5px; font-family: 'Arial', 'Helvetica', 'DejaVu Sans', sans-serif; text-anchor: middle" x="360.063363" y="219.905926" transform="rotate(-0 360.063363 219.905926)">19</text>
     </g>
    </g>
    <g id="text_6">
     <text style="font-size: 7px; font-family: 'Arial', 'Helvetica', 'DejaVu Sans', sans-serif; text-anchor: middle" x="204.701791" y="230.20827" transform="rotate(-0 204.701791 230.20827)">Iterations since frozen refresh</text>
    </g>
   </g>
   <g id="matplotlib.axis_2">
    <g id="ytick_1">
     <g id="line2d_6">
      <defs>
       <path id="m1033456eca" d="M 0 0
L -3.5 0
" style="stroke: #000000; stroke-width: 0.8"/>
      </defs>
      <g>
       <use xlink:href="#m1033456eca" x="33.804063" y="208.253348" style="stroke: #000000; stroke-width: 0.8"/>
      </g>
     </g>
     <g id="text_7">
      <text style="font-size: 6.5px; font-family: 'Arial', 'Helvetica', 'DejaVu Sans', sans-serif; text-anchor: end" x="26.804063" y="210.579637" transform="rotate(-0 26.804063 210.579637)">0.0</text>
     </g>
    </g>
    <g id="ytick_2">
     <g id="line2d_7">
      <g>
       <use xlink:href="#m1033456eca" x="33.804063" y="171.844291" style="stroke: #000000; stroke-width: 0.8"/>
      </g>
     </g>
     <g id="text_8">
      <text style="font-size: 6.5px; font-family: 'Arial', 'Helvetica', 'DejaVu Sans', sans-serif; text-anchor: end" x="26.804063" y="174.17058" transform="rotate(-0 26.804063 174.17058)">0.2</text>
     </g>
    </g>
    <g id="ytick_3">
     <g id="line2d_8">
      <g>
       <use xlink:href="#m1033456eca" x="33.804063" y="135.435233" style="stroke: #000000; stroke-width: 0.8"/>
      </g>
     </g>
     <g id="text_9">
      <text style="font-size: 6.5px; font-family: 'Arial', 'Helvetica', 'DejaVu Sans', sans-serif; text-anchor: end" x="26.804063" y="137.761523" transform="rotate(-0 26.804063 137.761523)">0.4</text>
     </g>
    </g>
    <g id="ytick_4">
     <g id="line2d_9">
      <g>
       <use xlink:href="#m1033456eca" x="33.804063" y="99.026176" style="stroke: #000000; stroke-width: 0.8"/>
      </g>
     </g>
     <g id="text_10">
      <text style="font-size: 6.5px; font-family: 'Arial', 'Helvetica', 'DejaVu Sans', sans-serif; text-anchor: end" x="26.804063" y="101.352465" transform="rotate(-0 26.804063 101.352465)">0.6</text>
     </g>
    </g>
    <g id="ytick_5">
     <g id="line2d_10">
      <g>
       <use xlink:href="#m1033456eca" x="33.804063" y="62.617119" style="stroke: #000000; stroke-width: 0.8"/>
      </g>
     </g>
     <g id="text_11">
      <text style="font-size: 6.5px; font-family: 'Arial', 'Helvetica', 'DejaVu Sans', sans-serif; text-anchor: end" x="26.804063" y="64.943408" transform="rotate(-0 26.804063 64.943408)">0.8</text>
     </g>
    </g>
    <g id="ytick_6">
     <g id="line2d_11">
      <g>
       <use xlink:href="#m1033456eca" x="33.804063" y="26.208061" style="stroke: #000000; stroke-width: 0.8"/>
      </g>
     </g>
     <g id="text_12">
      <text style="font-size: 6.5px; font-family: 'Arial', 'Helvetica', 'DejaVu Sans', sans-serif; text-anchor: end" x="26.804063" y="28.534351" transform="rotate(-0 26.804063 28.534351)">1.0</text>
     </g>
    </g>
    <g id="text_13">
     <text style="font-size: 7px; font-family: 'Arial', 'Helvetica', 'DejaVu Sans', sans-serif; text-anchor: middle" x="12.295781" y="113.589799" transform="rotate(-90 12.295781 113.589799)">Similarity to refresh state</text>
    </g>
   </g>
   <g id="line2d_12">
    <path d="M 49.34022 26.208061
L 131.109468 182.534853
L 212.878716 185.08839
L 294.647964 185.740675
L 360.063363 185.314328
" clip-path="url(#p4998026e38)" style="fill: none; stroke: #3f6c8e; stroke-width: 1.35; stroke-linecap: square"/>
    <defs>
     <path id="mbe17145bd4" d="M 0 2
C 0.530406 2 1.03916 1.789267 1.414214 1.414214
C 1.789267 1.03916 2 0.530406 2 0
C 2 -0.530406 1.789267 -1.03916 1.414214 -1.414214
C 1.03916 -1.789267 0.530406 -2 0 -2
C -0.530406 -2 -1.03916 -1.789267 -1.414214 -1.414214
C -1.789267 -1.03916 -2 -0.530406 -2 0
C -2 0.530406 -1.789267 1.03916 -1.414214 1.414214
C -1.03916 1.789267 -0.530406 2 0 2
z
" style="stroke: #3f6c8e"/>
    </defs>
    <g clip-path="url(#p4998026e38)">
     <use xlink:href="#mbe17145bd4" x="49.34022" y="26.208061" style="fill: #3f6c8e; stroke: #3f6c8e"/>
     <use xlink:href="#mbe17145bd4" x="131.109468" y="182.534853" style="fill: #3f6c8e; stroke: #3f6c8e"/>
     <use xlink:href="#mbe17145bd4" x="212.878716" y="185.08839" style="fill: #3f6c8e; stroke: #3f6c8e"/>
     <use xlink:href="#mbe17145bd4" x="294.647964" y="185.740675" style="fill: #3f6c8e; stroke: #3f6c8e"/>
     <use xlink:href="#mbe17145bd4" x="360.063363" y="185.314328" style="fill: #3f6c8e; stroke: #3f6c8e"/>
    </g>
   </g>
   <g id="line2d_13">
    <path d="M 49.34022 26.208061
L 131.109468 26.430214
L 212.878716 29.003176
L 294.647964 28.393687
L 360.063363 27.53921
" clip-path="url(#p4998026e38)" style="fill: none; stroke-dasharray: 4.07,1.76; stroke-dashoffset: 0; stroke: #3f6c8e; stroke-width: 1.1"/>
    <defs>
     <path id="me53b63308a" d="M -1.75 1.75
L 1.75 1.75
L 1.75 -1.75
L -1.75 -1.75
z
" style="stroke: #3f6c8e; stroke-linejoin: miter"/>
    </defs>
    <g clip-path="url(#p4998026e38)">
     <use xlink:href="#me53b63308a" x="49.34022" y="26.208061" style="fill: #3f6c8e; stroke: #3f6c8e; stroke-linejoin: miter"/>
     <use xlink:href="#me53b63308a" x="131.109468" y="26.430214" style="fill: #3f6c8e; stroke: #3f6c8e; stroke-linejoin: miter"/>
     <use xlink:href="#me53b63308a" x="212.878716" y="29.003176" style="fill: #3f6c8e; stroke: #3f6c8e; stroke-linejoin: miter"/>
     <use xlink:href="#me53b63308a" x="294.647964" y="28.393687" style="fill: #3f6c8e; stroke: #3f6c8e; stroke-linejoin: miter"/>
     <use xlink:href="#me53b63308a" x="360.063363" y="27.53921" style="fill: #3f6c8e; stroke: #3f6c8e; stroke-linejoin: miter"/>
    </g>
   </g>
   <g id="line2d_14">
    <path d="M 49.34022 26.208061
L 131.109468 184.12418
L 212.878716 183.821926
L 294.647964 184.46463
L 360.063363 185.311471
" clip-path="url(#p4998026e38)" style="fill: none; stroke: #c47a4a; stroke-width: 1.35; stroke-linecap: square"/>
    <defs>
     <path id="m528e0fe28d" d="M 0 2
C 0.530406 2 1.03916 1.789267 1.414214 1.414214
C 1.789267 1.03916 2 0.530406 2 0
C 2 -0.530406 1.789267 -1.03916 1.414214 -1.414214
C 1.03916 -1.789267 0.530406 -2 0 -2
C -0.530406 -2 -1.03916 -1.789267 -1.414214 -1.414214
C -1.789267 -1.03916 -2 -0.530406 -2 0
C -2 0.530406 -1.789267 1.03916 -1.414214 1.414214
C -1.03916 1.789267 -0.530406 2 0 2
z
" style="stroke: #c47a4a"/>
    </defs>
    <g clip-path="url(#p4998026e38)">
     <use xlink:href="#m528e0fe28d" x="49.34022" y="26.208061" style="fill: #c47a4a; stroke: #c47a4a"/>
     <use xlink:href="#m528e0fe28d" x="131.109468" y="184.12418" style="fill: #c47a4a; stroke: #c47a4a"/>
     <use xlink:href="#m528e0fe28d" x="212.878716" y="183.821926" style="fill: #c47a4a; stroke: #c47a4a"/>
     <use xlink:href="#m528e0fe28d" x="294.647964" y="184.46463" style="fill: #c47a4a; stroke: #c47a4a"/>
     <use xlink:href="#m528e0fe28d" x="360.063363" y="185.311471" style="fill: #c47a4a; stroke: #c47a4a"/>
    </g>
   </g>
   <g id="line2d_15">
    <path d="M 49.34022 26.208061
L 131.109468 27.745548
L 212.878716 26.474397
L 294.647964 27.977601
L 360.063363 28.086844
" clip-path="url(#p4998026e38)" style="fill: none; stroke-dasharray: 4.07,1.76; stroke-dashoffset: 0; stroke: #c47a4a; stroke-width: 1.1"/>
    <defs>
     <path id="maab25ca286" d="M -1.75 1.75
L 1.75 1.75
L 1.75 -1.75
L -1.75 -1.75
z
" style="stroke: #c47a4a; stroke-linejoin: miter"/>
    </defs>
    <g clip-path="url(#p4998026e38)">
     <use xlink:href="#maab25ca286" x="49.34022" y="26.208061" style="fill: #c47a4a; stroke: #c47a4a; stroke-linejoin: miter"/>
     <use xlink:href="#maab25ca286" x="131.109468" y="27.745548" style="fill: #c47a4a; stroke: #c47a4a; stroke-linejoin: miter"/>
     <use xlink:href="#maab25ca286" x="212.878716" y="26.474397" style="fill: #c47a4a; stroke: #c47a4a; stroke-linejoin: miter"/>
     <use xlink:href="#maab25ca286" x="294.647964" y="27.977601" style="fill: #c47a4a; stroke: #c47a4a; stroke-linejoin: miter"/>
     <use xlink:href="#maab25ca286" x="360.063363" y="28.086844" style="fill: #c47a4a; stroke: #c47a4a; stroke-linejoin: miter"/>
    </g>
   </g>
   <g id="patch_3">
    <path d="M 33.804063 208.253348
L 33.804063 18.92625
" style="fill: none; stroke: #000000; stroke-width: 0.7; stroke-linejoin: miter; stroke-linecap: square"/>
   </g>
   <g id="patch_4">
    <path d="M 33.804063 208.253348
L 375.59952 208.253348
" style="fill: none; stroke: #000000; stroke-width: 0.7; stroke-linejoin: miter; stroke-linecap: square"/>
   </g>
   <g id="text_14">
    <text style="font-size: 8px; font-family: 'Arial', 'Helvetica', 'DejaVu Sans', sans-serif; text-anchor: start" x="33.804063" y="12.92625" transform="rotate(-0 33.804063 12.92625)">Candidate-bank churn is distinct from common-action rank drift</text>
   </g>
   <g id="legend_1">
    <g id="line2d_16">
     <path d="M 229.060708 100.770893
L 234.860708 100.770893
L 240.660708 100.770893
" style="fill: none; stroke: #3f6c8e; stroke-width: 1.35; stroke-linecap: square"/>
     <g>
      <use xlink:href="#mbe17145bd4" x="234.860708" y="100.770893" style="fill: #3f6c8e; stroke: #3f6c8e"/>
     </g>
    </g>
    <g id="text_15">
     <text style="font-size: 5.8px; font-family: 'Arial', 'Helvetica', 'DejaVu Sans', sans-serif; text-anchor: start" x="245.300708" y="102.800893" transform="rotate(-0 245.300708 102.800893)">Clean non-R12: bank overlap</text>
    </g>
    <g id="line2d_17">
     <path d="M 229.060708 108.975174
L 234.860708 108.975174
L 240.660708 108.975174
" style="fill: none; stroke-dasharray: 4.07,1.76; stroke-dashoffset: 0; stroke: #3f6c8e; stroke-width: 1.1"/>
     <g>
      <use xlink:href="#me53b63308a" x="234.860708" y="108.975174" style="fill: #3f6c8e; stroke: #3f6c8e; stroke-linejoin: miter"/>
     </g>
    </g>
    <g id="text_16">
     <text style="font-size: 5.8px; font-family: 'Arial', 'Helvetica', 'DejaVu Sans', sans-serif; text-anchor: start" x="245.300708" y="111.005174" transform="rotate(-0 245.300708 111.005174)">Clean non-R12: common-action rank</text>
    </g>
    <g id="line2d_18">
     <path d="M 229.060708 117.196674
L 234.860708 117.196674
L 240.660708 117.196674
" style="fill: none; stroke: #c47a4a; stroke-width: 1.35; stroke-linecap: square"/>
     <g>
      <use xlink:href="#m528e0fe28d" x="234.860708" y="117.196674" style="fill: #c47a4a; stroke: #c47a4a"/>
     </g>
    </g>
    <g id="text_17">
     <text style="font-size: 5.8px; font-family: 'Arial', 'Helvetica', 'DejaVu Sans', sans-serif; text-anchor: start" x="245.300708" y="119.226674" transform="rotate(-0 245.300708 119.226674)">R12 development-exposed: bank overlap</text>
    </g>
    <g id="line2d_19">
     <path d="M 229.060708 125.418174
L 234.860708 125.418174
L 240.660708 125.418174
" style="fill: none; stroke-dasharray: 4.07,1.76; stroke-dashoffset: 0; stroke: #c47a4a; stroke-width: 1.1"/>
     <g>
      <use xlink:href="#maab25ca286" x="234.860708" y="125.418174" style="fill: #c47a4a; stroke: #c47a4a; stroke-linejoin: miter"/>
     </g>
    </g>
    <g id="text_18">
     <text style="font-size: 5.8px; font-family: 'Arial', 'Helvetica', 'DejaVu Sans', sans-serif; text-anchor: start" x="245.300708" y="127.448174" transform="rotate(-0 245.300708 127.448174)">R12 development-exposed: common-action rank</text>
    </g>
   </g>
  </g>
 </g>
 <defs>
  <clipPath id="p4998026e38">
   <rect x="33.804063" y="18.92625" width="341.795458" height="189.327098"/>
  </clipPath>
 </defs>
</svg>
